<?xml version="1.0" encoding="UTF-8" standalone="no"?>
<svg
   xmlns:dc="http://purl.org/dc/elements/1.1/"
   xmlns:cc="http://creativecommons.org/ns#"
   xmlns:rdf="http://www.w3.org/1999/02/22-rdf-syntax-ns#"
   xmlns:svg="http://www.w3.org/2000/svg"
   xmlns="http://www.w3.org/2000/svg"
   xmlns:sodipodi="http://sodipodi.sourceforge.net/DTD/sodipodi-0.dtd"
   xmlns:inkscape="http://www.inkscape.org/namespaces/inkscape"
   inkscape:version="1.0 (4035a4f, 2020-05-01)"
   sodipodi:docname="left-arrow-up.svg"
   xml:space="preserve"
   style="enable-background:new 0 0 330 330;"
   viewBox="0 0 330 330"
   y="0px"
   x="0px"
   id="Layer_1"
   version="1.1"><metadata
   id="metadata869"><rdf:RDF><cc:Work
       rdf:about=""><dc:format>image/svg+xml</dc:format><dc:type
         rdf:resource="http://purl.org/dc/dcmitype/StillImage" /></cc:Work></rdf:RDF></metadata><defs
   id="defs867" /><sodipodi:namedview
   inkscape:current-layer="Layer_1"
   inkscape:window-maximized="0"
   inkscape:window-y="23"
   inkscape:window-x="271"
   inkscape:cy="150.23969"
   inkscape:cx="120.02929"
   inkscape:zoom="1.6518455"
   showgrid="false"
   id="namedview865"
   inkscape:window-height="844"
   inkscape:window-width="1387"
   inkscape:pageshadow="2"
   inkscape:pageopacity="0"
   guidetolerance="10"
   gridtolerance="10"
   objecttolerance="10"
   borderopacity="1"
   bordercolor="#666666"
   pagecolor="#ffffff"
   inkscape:document-rotation="0" />
<path
   style="fill:#bebebe;fill-opacity:1;stroke-width:1.0015748;stroke-miterlimit:4;stroke-dasharray:none"
   d="M 74.998445,315.00156 V 105.00155 h -60 c -6.067,0 -11.537,-3.654 -13.858,-9.259995 -2.32,-5.602 -1.03800001,-12.057 3.252,-16.347 l 75,-75 c 5.858,-5.858 15.355,-5.858 21.212985,0 l 75,75 c 2.87,2.869 4.394,6.706 4.394,10.609 0,1.933 -0.373,3.882 -1.142,5.737 -2.322,5.604995 -7.792,9.259995 -13.858,9.259995 h -60 v 195.00001 h 210.00001 c 8.284,0 15,6.716 15,15 0,8.284 -6.716,15 -15,15 H 89.998445 c -8.284,10e-4 -15,-6.715 -15,-14.999 z m 53.786985,-240.000005 -38.786985,-38.787 -38.787,38.787 z"
   id="XMLID_19_" />
<g
   transform="matrix(0,1,1,0,329.99849,0)"
   id="g834">
</g>
<g
   transform="matrix(0,1,1,0,329.99849,0)"
   id="g836">
</g>
<g
   transform="matrix(0,1,1,0,329.99849,0)"
   id="g838">
</g>
<g
   transform="matrix(0,1,1,0,329.99849,0)"
   id="g840">
</g>
<g
   transform="matrix(0,1,1,0,329.99849,0)"
   id="g842">
</g>
<g
   transform="matrix(0,1,1,0,329.99849,0)"
   id="g844">
</g>
<g
   transform="matrix(0,1,1,0,329.99849,0)"
   id="g846">
</g>
<g
   transform="matrix(0,1,1,0,329.99849,0)"
   id="g848">
</g>
<g
   transform="matrix(0,1,1,0,329.99849,0)"
   id="g850">
</g>
<g
   transform="matrix(0,1,1,0,329.99849,0)"
   id="g852">
</g>
<g
   transform="matrix(0,1,1,0,329.99849,0)"
   id="g854">
</g>
<g
   transform="matrix(0,1,1,0,329.99849,0)"
   id="g856">
</g>
<g
   transform="matrix(0,1,1,0,329.99849,0)"
   id="g858">
</g>
<g
   transform="matrix(0,1,1,0,329.99849,0)"
   id="g860">
</g>
<g
   transform="matrix(0,1,1,0,329.99849,0)"
   id="g862">
</g>
</svg>
