<?xml version="1.0" encoding="UTF-8" standalone="no"?>
<svg
   xmlns:dc="http://purl.org/dc/elements/1.1/"
   xmlns:cc="http://creativecommons.org/ns#"
   xmlns:rdf="http://www.w3.org/1999/02/22-rdf-syntax-ns#"
   xmlns:svg="http://www.w3.org/2000/svg"
   xmlns="http://www.w3.org/2000/svg"
   xmlns:sodipodi="http://sodipodi.sourceforge.net/DTD/sodipodi-0.dtd"
   xmlns:inkscape="http://www.inkscape.org/namespaces/inkscape"
   version="1.1"
   id="Layer_1"
   x="0px"
   y="0px"
   viewBox="0 0 330 330"
   style="enable-background:new 0 0 330 330;"
   xml:space="preserve"
   sodipodi:docname="left-arrow.svg"
   inkscape:version="1.0 (4035a4f, 2020-05-01)"><metadata
   id="metadata869"><rdf:RDF><cc:Work
       rdf:about=""><dc:format>image/svg+xml</dc:format><dc:type
         rdf:resource="http://purl.org/dc/dcmitype/StillImage" /></cc:Work></rdf:RDF></metadata><defs
   id="defs867" /><sodipodi:namedview
   inkscape:document-rotation="0"
   pagecolor="#ffffff"
   bordercolor="#666666"
   borderopacity="1"
   objecttolerance="10"
   gridtolerance="10"
   guidetolerance="10"
   inkscape:pageopacity="0"
   inkscape:pageshadow="2"
   inkscape:window-width="1387"
   inkscape:window-height="844"
   id="namedview865"
   showgrid="false"
   inkscape:zoom="1.6518455"
   inkscape:cx="120.02929"
   inkscape:cy="150.23969"
   inkscape:window-x="119"
   inkscape:window-y="23"
   inkscape:window-maximized="0"
   inkscape:current-layer="Layer_1" />
<path
   style="fill:#bebebe;fill-opacity:1"
   id="XMLID_19_"
   d="M 74.998443,15.000057 V 225.00006 h -60 c -6.0670004,0 -11.5370004,3.654 -13.8580004,9.26 -2.32,5.602 -1.03799998,12.057 3.252,16.347 l 75.0000004,75 c 5.858,5.858 15.355,5.858 21.212997,0 l 75,-75 c 2.87,-2.869 4.394,-6.706 4.394,-10.609 0,-1.933 -0.373,-3.882 -1.142,-5.737 -2.322,-5.605 -7.792,-9.26 -13.858,-9.26 h -60 V 30.001057 h 210 c 8.284,0 15,-6.716 15,-15 0,-8.2839995 -6.716,-14.99999951 -15,-14.99999951 H 89.998443 c -8.284,-9.99998346e-4 -15,6.71500001 -15,14.99899951 z m 53.786997,240.000003 -38.786997,38.787 -38.787,-38.787 z" />
<g
   id="g834"
   transform="rotate(-90)">
</g>
<g
   id="g836"
   transform="rotate(-90)">
</g>
<g
   id="g838"
   transform="rotate(-90)">
</g>
<g
   id="g840"
   transform="rotate(-90)">
</g>
<g
   id="g842"
   transform="rotate(-90)">
</g>
<g
   id="g844"
   transform="rotate(-90)">
</g>
<g
   id="g846"
   transform="rotate(-90)">
</g>
<g
   id="g848"
   transform="rotate(-90)">
</g>
<g
   id="g850"
   transform="rotate(-90)">
</g>
<g
   id="g852"
   transform="rotate(-90)">
</g>
<g
   id="g854"
   transform="rotate(-90)">
</g>
<g
   id="g856"
   transform="rotate(-90)">
</g>
<g
   id="g858"
   transform="rotate(-90)">
</g>
<g
   id="g860"
   transform="rotate(-90)">
</g>
<g
   id="g862"
   transform="rotate(-90)">
</g>
</svg>
