<?xml version="1.0" encoding="UTF-8" standalone="no"?>
<svg
   xmlns:dc="http://purl.org/dc/elements/1.1/"
   xmlns:cc="http://creativecommons.org/ns#"
   xmlns:rdf="http://www.w3.org/1999/02/22-rdf-syntax-ns#"
   xmlns:svg="http://www.w3.org/2000/svg"
   xmlns="http://www.w3.org/2000/svg"
   xmlns:sodipodi="http://sodipodi.sourceforge.net/DTD/sodipodi-0.dtd"
   xmlns:inkscape="http://www.inkscape.org/namespaces/inkscape"
   version="1.1"
   id="Layer_1"
   x="0px"
   y="0px"
   viewBox="0 0 330 330"
   style="enable-background:new 0 0 330 330;"
   xml:space="preserve"
   sodipodi:docname="right-arrow.svg"
   inkscape:version="1.0 (4035a4f, 2020-05-01)"><metadata
   id="metadata869"><rdf:RDF><cc:Work
       rdf:about=""><dc:format>image/svg+xml</dc:format><dc:type
         rdf:resource="http://purl.org/dc/dcmitype/StillImage" /></cc:Work></rdf:RDF></metadata><defs
   id="defs867" /><sodipodi:namedview
   inkscape:document-rotation="0"
   pagecolor="#ffffff"
   bordercolor="#666666"
   borderopacity="1"
   objecttolerance="10"
   gridtolerance="10"
   guidetolerance="10"
   inkscape:pageopacity="0"
   inkscape:pageshadow="2"
   inkscape:window-width="1387"
   inkscape:window-height="844"
   id="namedview865"
   showgrid="false"
   inkscape:zoom="1.6518455"
   inkscape:cx="3.4929674"
   inkscape:cy="150.23969"
   inkscape:window-x="146"
   inkscape:window-y="32"
   inkscape:window-maximized="0"
   inkscape:current-layer="Layer_1" />
<path
   style="fill:#bebebe;fill-opacity:1"
   id="XMLID_19_"
   d="M 255.00005,315.00156 V 105.00155 h 60 c 6.067,0 11.537,-3.654 13.858,-9.259995 2.32,-5.602 1.038,-12.057 -3.252,-16.347 l -75,-75 c -5.858,-5.858 -15.355,-5.858 -21.21299,0 l -75,75 c -2.87,2.869 -4.394,6.706 -4.394,10.609 0,1.933 0.373,3.882 1.142,5.737 2.322,5.604995 7.792,9.259995 13.858,9.259995 h 60 V 300.00056 H 14.999059 c -8.2839992,0 -14.99999913698,6.716 -14.99999913698,15 0,8.284 6.71599993698,15 14.99999913698,15 H 240.00005 c 8.284,10e-4 15,-6.715 15,-14.999 z m -53.78699,-240.000005 38.78699,-38.787 38.787,38.787 z" />
<g
   id="g834"
   transform="rotate(-90)">
</g>
<g
   id="g836"
   transform="rotate(-90)">
</g>
<g
   id="g838"
   transform="rotate(-90)">
</g>
<g
   id="g840"
   transform="rotate(-90)">
</g>
<g
   id="g842"
   transform="rotate(-90)">
</g>
<g
   id="g844"
   transform="rotate(-90)">
</g>
<g
   id="g846"
   transform="rotate(-90)">
</g>
<g
   id="g848"
   transform="rotate(-90)">
</g>
<g
   id="g850"
   transform="rotate(-90)">
</g>
<g
   id="g852"
   transform="rotate(-90)">
</g>
<g
   id="g854"
   transform="rotate(-90)">
</g>
<g
   id="g856"
   transform="rotate(-90)">
</g>
<g
   id="g858"
   transform="rotate(-90)">
</g>
<g
   id="g860"
   transform="rotate(-90)">
</g>
<g
   id="g862"
   transform="rotate(-90)">
</g>
</svg>
